<?xml version="1.0" encoding="UTF-8" standalone="no"?>
<svg width="136px" height="36px" viewBox="0 0 136 36" version="1.1" xmlns="http://www.w3.org/2000/svg" xmlns:xlink="http://www.w3.org/1999/xlink">
    <!-- Generator: Sketch 39 (31667) - http://www.bohemiancoding.com/sketch -->
    <title>logo</title>
    <desc>Created with Sketch.</desc>
    <defs></defs>
    <g id="Page-1" stroke="none" stroke-width="1" fill="none" fill-rule="evenodd">
        <g id="Artboard-3" transform="translate(-62.000000, -42.000000)" fill="#00A0E9">
            <g id="logo" transform="translate(62.000000, 42.000000)">
                <path d="M119.233269,9.43729845 C117.313255,11.3625856 116.357143,13.6733215 116.357143,16.365593 L116.357143,16.3753759 L116.357143,16.3812457 L116.357143,16.3832023 L116.357143,16.3851589 L116.357143,16.3890721 L116.357143,16.3910287 L116.357143,16.3929853 L116.357143,16.3949418 L116.357143,16.3968984 L116.357143,16.398855 C116.35909,16.4399435 116.35909,16.4790753 116.35909,16.5162506 C116.390247,19.1772166 117.340517,21.4449074 119.207954,23.3173666 C119.74735,23.8612993 120.319849,24.3250118 120.923504,24.7143737 L120.939082,24.698721 C122.378119,25.6241893 123.988516,26.1211638 125.768325,26.1798616 L125.855953,26.1818182 L125.875426,26.1818182 L125.887109,26.1818182 L125.984473,26.1837748 L126.001999,26.1837748 L126.035102,26.1837748 L126.126624,26.1837748 L126.128571,26.1837748 C128.841126,26.1837748 131.144753,25.2289576 133.047241,23.3173666 C134.947782,21.4077322 135.9,19.0911265 135.9,16.365593 C135.9,13.6733215 134.947782,11.3625856 133.047241,9.43729845 C131.144753,7.50809812 128.841126,6.54545455 126.126624,6.54545455 C123.44912,6.54545455 121.149388,7.50809812 119.233269,9.43729845 Z M112.438365,7.01103081 C112.010766,6.57675379 111.532137,6.54545455 110.981361,6.54545455 C110.888099,6.54545455 110.793077,6.54741075 110.696295,6.54741075 L109.855175,6.54741075 L109.855175,23.218171 L109.842857,23.4900831 C109.842857,23.5918057 109.844617,23.6896158 109.855175,23.7854698 L109.855175,23.7913384 C109.911484,24.4016736 110.142,24.9318046 110.546724,25.3875998 C111.016555,25.9177308 111.588446,26.1818182 112.258879,26.1818182 L113.094721,26.1818182 L113.094721,23.7913384 L113.09824,23.7913384 L113.09824,16.2032277 C113.09824,16.1934467 113.1,16.1836657 113.1,16.1758409 L113.1,8.44883986 C113.033133,7.89132207 112.865964,7.44139542 112.438365,7.01103081 Z M106.571522,23.7203863 C106.571522,22.6705358 105.601712,21.8181818 104.40719,21.8181818 C103.217398,21.8181818 102.252319,22.6622201 102.242857,23.703755 C102.245223,23.7099918 102.245223,23.7141496 102.247588,23.7203863 C102.32328,24.2421933 102.559819,24.7057906 102.950109,25.1194941 C103.018705,25.1922561 103.082571,25.2691758 103.160629,25.3377799 C103.792188,25.9011651 104.56094,26.1818182 105.462154,26.1818182 L106.585714,26.1818182 L106.585714,23.7203863 L106.571522,23.7203863 Z M69.4115741,6.54741799 L68.4125661,6.54741799 L68.4125661,23.2189872 L68.4,23.4899419 C68.4,23.5920408 68.4020944,23.6882494 68.4125661,23.7864214 L68.4125661,23.7923117 C68.4795855,24.4009781 68.7539462,24.9311069 69.2356481,25.3885884 C69.7927469,25.9167538 70.469224,26.1818182 71.262985,26.1818182 L72.2557099,26.1818182 L72.2557099,23.7923117 L72.2598986,23.7923117 L72.2598986,16.2016526 C72.2598986,13.4665806 73.6714947,11.8251448 74.4191799,11.2243321 C76.471649,9.57307906 77.3282407,10.1837089 78.352381,9.40422321 C78.5785714,9.22947705 79.2571429,8.76217833 79.2571429,7.25032951 L79.2571429,6.56508895 C79.2571429,6.56508895 77.6507716,6.54741799 76.4527998,6.58668679 C74.7794092,6.68485879 73.6275132,7.28370799 72.3520503,8.84071593 L72.2829365,8.84071593 L72.2829365,8.56583433 L72.2829365,8.55994401 C72.2159171,7.94735072 72.0190476,7.46827135 71.4766093,7.01078983 C70.9718695,6.57686959 70.4022046,6.54545455 69.7508598,6.54545455 C69.6398589,6.54545455 69.5267637,6.54741799 69.4115741,6.54741799 Z M48.4769963,9.43621635 C46.5576958,11.3607724 45.6,13.6722036 45.6,16.3646183 L45.6,16.3764013 L45.6,16.3803289 L45.6,16.3822928 L45.6,16.3842566 L45.6,16.3881843 L45.6,16.3901481 L45.6,16.3921119 L45.6,16.3940758 L45.6,16.3960396 L45.6,16.3980034 C45.6019545,16.4392439 45.6019545,16.4785206 45.6019545,16.5158334 C45.6351807,19.1768268 46.5850585,21.4430898 48.451588,23.31855 C48.9910248,23.8605679 49.5636878,24.3259962 50.1676225,24.7128713 L50.1832583,24.6991245 C51.6217565,25.6240897 53.2322489,26.1189755 55.0127813,26.1778905 L55.1007329,26.1798543 L55.1183233,26.1798543 L55.1300501,26.1818182 L55.2277742,26.183782 L55.2453645,26.183782 L55.2785907,26.183782 L55.3704513,26.183782 L55.3724058,26.183782 C58.0852257,26.183782 60.3876045,25.2273955 62.2912691,23.31855 C64.1910248,21.4077408 65.1428571,19.0884543 65.1428571,16.3646183 C65.1428571,13.6722036 64.1910248,11.3607724 62.2912691,9.43621635 C60.3876045,7.50773259 58.0852257,6.54545455 55.3704513,6.54545455 C52.6928121,6.54545455 50.3923878,7.50773259 48.4769963,9.43621635 Z M32.4137318,6.54545455 C29.7790424,6.54545455 27.5135941,7.52006077 25.6270026,9.46927323 C23.7404111,11.4145158 22.8,13.7507918 22.8,16.4701616 L22.8,16.623002 C22.8326932,19.3125976 23.769258,21.60322 25.6058481,23.4988391 C26.1347091,24.0486678 26.6981865,24.517114 27.292434,24.9101324 C28.7213203,25.8311452 30.3079034,26.3313504 32.0598757,26.3908987 L32.1464166,26.3928836 L32.2752664,26.3968535 L32.4137318,26.3968535 C34.9445722,26.3968535 37.1119408,25.5274492 38.9254534,23.7926104 C38.9254534,24.6421653 38.9235302,26.4345674 38.9216071,26.5338145 C38.7754492,31.1110893 36.0388338,32.746681 32.5271966,32.780425 C29.7751961,32.780425 28.3405404,31.3750865 27.6520595,30.4917876 C27.4559001,30.1603024 27.2905109,29.8863805 27.1943543,29.7394948 C26.8020356,29.1261479 26.2077881,28.6398373 25.457767,28.4532528 C24.7038997,28.2686532 23.9673405,28.3043822 23.3077066,28.7291596 L22.8,29.1142383 C22.8,29.1142383 23.6884865,30.7478451 24.3942756,31.7065717 C24.4115838,31.7284061 24.4308151,31.7462706 24.4500464,31.76612 C26.1635561,34.3604384 28.9751736,36 32.4945033,36 C38.5869823,36 42.2101611,32.3695422 42.3390109,26.3988384 C42.3390109,26.3055462 42.3390109,24.1518848 42.3428571,23.4789896 L42.3428571,23.3837125 L42.3428571,23.2904202 L42.3428571,6.61294255 L41.400523,6.6248522 C40.6293474,6.6248522 39.9754829,6.90671388 39.4370062,7.47043724 C39.0273793,7.8952147 38.7754492,8.38549522 38.6773695,8.93929388 L38.5831361,8.85592634 C37.2946383,7.59151866 35.1138077,6.54545455 32.6579695,6.54545455 C32.6310456,6.54545455 32.6021987,6.54743949 32.5733517,6.54743949 C32.5137346,6.54743949 32.4656564,6.54545455 32.4137318,6.54545455 Z M2.85325714,9.43592727 C0.951737143,11.3602909 0,13.6714909 0,16.3636364 C0,19.0872 0.951737143,21.4062545 2.85325714,23.3168727 C4.75477714,25.2255273 7.05888,26.1818182 9.77142857,26.1818182 C11.6983543,26.1818182 13.4278971,25.6850182 14.9600571,24.6973091 C15.03432,24.7837091 15.1085829,24.8740364 15.1926171,24.9584727 C15.9958286,25.7753455 16.9690629,26.1818182 18.1181829,26.1818182 L19.5428571,26.1818182 L19.5428571,16.5148364 L19.5389486,16.5148364 C19.5409029,16.4696727 19.5428571,16.4225455 19.5428571,16.3754182 L19.5428571,16.3636364 C19.5428571,13.6714909 18.5852571,11.3602909 16.6641943,9.43592727 C14.7489943,7.50763636 12.4488,6.54545455 9.77142857,6.54545455 C7.05888,6.54545455 4.75477714,7.50763636 2.85325714,9.43592727 Z M11.4678623,3.27272727 C11.1609276,3.27272727 10.8765015,3.53489117 10.8580854,3.88668374 C10.8396693,4.24519846 11.093402,4.55441741 11.4187527,4.57234315 C15.1981414,4.79417414 18.6358095,7.04609475 20.6124686,10.5953905 C20.7250113,10.7970551 20.9194033,10.9090909 21.1219801,10.9090909 C21.2263379,10.9090909 21.3347882,10.8777209 21.4289148,10.8127401 C21.7112947,10.6267606 21.7972364,10.2256722 21.6273992,9.91869398 C19.4481632,5.9996799 15.6544509,3.51920615 11.4842321,3.27272727 L11.4678623,3.27272727 Z M11.4117385,0 C11.1066394,0.002063178 10.8629438,0.264086784 10.8571872,0.590068909 C10.8533495,0.922240568 11.0989639,1.19251689 11.4098197,1.19870642 C16.1091142,1.26885447 20.4937152,4.03763935 22.8443219,8.42808214 C22.9479405,8.62408406 23.1398267,8.72930613 23.3336318,8.72724296 C23.4276561,8.72724296 23.5197615,8.70248482 23.6061103,8.64884219 C23.8728322,8.48378795 23.9649376,8.11654227 23.8114286,7.82976052 C21.2631791,3.0761984 16.515913,0.0763375861 11.4251706,0 L11.4117385,0 Z M79.4428571,16.3646183 C79.4428571,19.0884543 80.392735,21.4077408 82.2963996,23.31855 C84.1981098,25.2273955 86.5043976,26.183782 89.2133085,26.183782 C91.1404269,26.183782 92.8720972,25.6869323 94.402456,24.6991245 C94.4786807,24.7855331 94.5509965,24.8758694 94.6369937,24.9603142 C95.4402855,25.7772686 96.4136171,26.183782 97.562852,26.183782 L98.9857143,26.183782 L98.9857143,16.5158334 C98.9837598,16.4706652 98.9857143,16.4235333 98.9857143,16.3764013 C98.9857143,13.6722036 98.029973,11.3607724 96.108718,9.43621635 C94.191372,7.50773259 91.8929021,6.54545455 89.2133085,6.54545455 C86.5043976,6.54545455 84.1981098,7.50773259 82.2963996,9.43621635 C80.392735,11.3607724 79.4428571,13.6722036 79.4428571,16.3646183 Z M16.6536,12.2239464 C15.4172571,10.5021474 13.5946286,9.36737225 11.5251429,9.02425263 C11.2001143,8.96844402 10.98,8.66253014 11.0334857,8.33594641 C11.0890286,8.00729569 11.3934857,7.78612823 11.7185143,7.84193684 C14.1027429,8.2367311 16.1969143,9.54306603 17.6204571,11.5191043 C17.8158857,11.7878124 17.7541714,12.1640038 17.4826286,12.3583005 C17.3797714,12.432712 17.2563429,12.4699177 17.1370286,12.4699177 C16.9498286,12.4699177 16.7708571,12.3851713 16.6536,12.2239464 Z M3.25714286,16.3636364 C3.25714286,12.7468922 6.17190698,9.81818182 9.7734485,9.81818182 C13.3689302,9.81818182 16.2857143,12.7468922 16.2857143,16.3636364 C16.2857143,17.7234672 15.8716279,18.987907 15.1666711,20.0351797 L16.112,22.6026216 L13.6295017,21.6324736 C12.5488372,22.4321353 11.2197209,22.9111205 9.7734485,22.9111205 C6.17190698,22.9111205 3.25714286,19.978351 3.25714286,16.3636364 Z M27.1760126,20.0356252 C26.4731847,18.9864855 26.0571429,17.7242711 26.0571429,16.364651 C26.0571429,12.7484675 28.9714551,9.81818182 32.5724384,9.81818182 C36.1693824,9.81818182 39.0857143,12.7484675 39.0857143,16.364651 C39.0857143,19.976776 36.1693824,22.9090909 32.5724384,22.9090909 C31.1263901,22.9090909 29.7954603,22.43018 28.7149634,21.6326715 L26.2328498,22.6006398 L27.1760126,20.0356252 Z M49.9778585,20.0320126 C49.2751395,18.9850645 48.8571429,17.7210167 48.8571429,16.3616074 C48.8571429,12.7459843 51.7730228,9.81818182 55.3714286,9.81818182 C58.9678151,9.81818182 61.8857143,12.7459843 61.8857143,16.3616074 C61.8857143,19.9752015 58.9678151,22.9070619 55.3714286,22.9070619 C53.9296431,22.9070619 52.5969002,22.4282252 51.5165707,21.6288114 L49.0348419,22.5986586 L49.9778585,20.0320126 Z M82.7,16.3626217 C82.7,12.7464382 85.6163319,9.81818182 89.2132759,9.81818182 C92.8142591,9.81818182 95.7285714,12.7464382 95.7285714,16.3626217 C95.7285714,17.7222418 95.3125296,18.9864855 94.6076821,20.0335959 L95.5508448,22.6006398 L93.0707509,21.6306422 C91.9882344,22.43018 90.6593241,22.9090909 89.2132759,22.9090909 C85.6163319,22.9090909 82.7,19.976776 82.7,16.3626217 Z M120.734872,20.0325678 C120.030733,18.9854568 119.614286,17.7220506 119.614286,16.3636364 C119.614286,12.7492841 122.53143,9.81818182 126.128571,9.81818182 C129.725713,9.81818182 132.642857,12.7492841 132.642857,16.3636364 C132.642857,19.9779887 129.725713,22.9070695 126.128571,22.9070695 C124.686094,22.9070695 123.354266,22.4279858 122.273917,21.6295132 L119.793338,22.5998091 L120.734872,20.0325678 Z" id="agora_logo"></path>
            </g>
        </g>
    </g>
</svg>